<?xml version="1.0" encoding="UTF-8"?>
<!-- Do not edit this file with editors other than draw.io -->
<!DOCTYPE svg PUBLIC "-//W3C//DTD SVG 1.1//EN" "http://www.w3.org/Graphics/SVG/1.1/DTD/svg11.dtd">
<svg xmlns="http://www.w3.org/2000/svg" style="background: transparent; background-color: transparent; color-scheme: light dark;" xmlns:xlink="http://www.w3.org/1999/xlink" version="1.1" width="586px" height="497px" viewBox="0 0 586 497" content="&lt;mxfile host=&quot;app.diagrams.net&quot;&gt;&#10;  &lt;diagram name=&quot;Page-1&quot; id=&quot;Q6wW0Z4zGapc4aRwallI&quot;&gt;&#10;    &lt;mxGraphModel dx=&quot;1624&quot; dy=&quot;417&quot; grid=&quot;1&quot; gridSize=&quot;10&quot; guides=&quot;1&quot; tooltips=&quot;1&quot; connect=&quot;1&quot; arrows=&quot;1&quot; fold=&quot;1&quot; page=&quot;1&quot; pageScale=&quot;1&quot; pageWidth=&quot;850&quot; pageHeight=&quot;1100&quot; math=&quot;0&quot; shadow=&quot;0&quot;&gt;&#10;      &lt;root&gt;&#10;        &lt;mxCell id=&quot;0&quot; /&gt;&#10;        &lt;mxCell id=&quot;1&quot; parent=&quot;0&quot; /&gt;&#10;        &lt;mxCell id=&quot;rPtBvjCUnfqFWaXZD2SB-5&quot; parent=&quot;1&quot; style=&quot;text;html=1;whiteSpace=wrap;strokeColor=none;fillColor=none;align=center;verticalAlign=middle;rounded=0;&quot; value=&quot;Data Mesh&quot; vertex=&quot;1&quot;&gt;&#10;          &lt;mxGeometry height=&quot;30&quot; width=&quot;60&quot; x=&quot;40&quot; y=&quot;429.15000000000003&quot; as=&quot;geometry&quot; /&gt;&#10;        &lt;/mxCell&gt;&#10;        &lt;mxCell id=&quot;rPtBvjCUnfqFWaXZD2SB-17&quot; parent=&quot;1&quot; style=&quot;points=[];aspect=fixed;html=1;align=center;shadow=0;dashed=0;fillColor=#FF6A00;strokeColor=none;shape=mxgraph.alibaba_cloud.petadata_hybriddb_for_mysql;&quot; value=&quot;&quot; vertex=&quot;1&quot;&gt;&#10;          &lt;mxGeometry height=&quot;56.1&quot; width=&quot;56.699999999999996&quot; x=&quot;-30.000000000000004&quot; y=&quot;403.05&quot; as=&quot;geometry&quot; /&gt;&#10;        &lt;/mxCell&gt;&#10;        &lt;mxCell id=&quot;rPtBvjCUnfqFWaXZD2SB-21&quot; parent=&quot;1&quot; style=&quot;text;html=1;whiteSpace=wrap;overflow=hidden;rounded=0;&quot; value=&quot;&amp;lt;h1 style=&amp;quot;margin-top: 0px;&amp;quot;&amp;gt;Data Lake&amp;lt;/h1&amp;gt;&amp;lt;p&amp;gt;ingest raw data as it is&amp;lt;/p&amp;gt;&amp;lt;p&amp;gt;fast ingest&amp;lt;/p&amp;gt;&quot; vertex=&quot;1&quot;&gt;&#10;          &lt;mxGeometry height=&quot;120&quot; width=&quot;180&quot; x=&quot;-205&quot; y=&quot;10&quot; as=&quot;geometry&quot; /&gt;&#10;        &lt;/mxCell&gt;&#10;        &lt;mxCell id=&quot;rPtBvjCUnfqFWaXZD2SB-23&quot; parent=&quot;1&quot; style=&quot;text;html=1;whiteSpace=wrap;overflow=hidden;rounded=0;&quot; value=&quot;&amp;lt;h1 style=&amp;quot;margin-top: 0px;&amp;quot;&amp;gt;Data warehouse&amp;lt;/h1&amp;gt;&amp;lt;p&amp;gt;structured data.&amp;lt;/p&amp;gt;&amp;lt;p&amp;gt;need to respect schema&amp;lt;/p&amp;gt;&quot; vertex=&quot;1&quot;&gt;&#10;          &lt;mxGeometry height=&quot;120&quot; width=&quot;180&quot; x=&quot;-205&quot; y=&quot;118&quot; as=&quot;geometry&quot; /&gt;&#10;        &lt;/mxCell&gt;&#10;        &lt;mxCell id=&quot;rPtBvjCUnfqFWaXZD2SB-24&quot; connectable=&quot;0&quot; parent=&quot;1&quot; style=&quot;group&quot; value=&quot;&quot; vertex=&quot;1&quot;&gt;&#10;          &lt;mxGeometry height=&quot;78&quot; width=&quot;130&quot; x=&quot;-25&quot; y=&quot;40&quot; as=&quot;geometry&quot; /&gt;&#10;        &lt;/mxCell&gt;&#10;        &lt;mxCell id=&quot;rPtBvjCUnfqFWaXZD2SB-1&quot; parent=&quot;rPtBvjCUnfqFWaXZD2SB-24&quot; style=&quot;text;html=1;whiteSpace=wrap;strokeColor=none;fillColor=none;align=center;verticalAlign=middle;rounded=0;&quot; value=&quot;Data Lake&quot; vertex=&quot;1&quot;&gt;&#10;          &lt;mxGeometry height=&quot;30&quot; width=&quot;60&quot; x=&quot;70&quot; y=&quot;48&quot; as=&quot;geometry&quot; /&gt;&#10;        &lt;/mxCell&gt;&#10;        &lt;mxCell id=&quot;rPtBvjCUnfqFWaXZD2SB-12&quot; edge=&quot;1&quot; parent=&quot;rPtBvjCUnfqFWaXZD2SB-24&quot; source=&quot;rPtBvjCUnfqFWaXZD2SB-8&quot; style=&quot;edgeStyle=orthogonalEdgeStyle;rounded=0;orthogonalLoop=1;jettySize=auto;html=1;exitX=1;exitY=0;exitDx=0;exitDy=22.5;exitPerimeter=0;&quot; target=&quot;rPtBvjCUnfqFWaXZD2SB-18&quot;&gt;&#10;          &lt;mxGeometry relative=&quot;1&quot; as=&quot;geometry&quot; /&gt;&#10;        &lt;/mxCell&gt;&#10;        &lt;mxCell id=&quot;rPtBvjCUnfqFWaXZD2SB-8&quot; parent=&quot;rPtBvjCUnfqFWaXZD2SB-24&quot; style=&quot;shape=cylinder3;whiteSpace=wrap;html=1;boundedLbl=1;backgroundOutline=1;size=15;&quot; value=&quot;sources&quot; vertex=&quot;1&quot;&gt;&#10;          &lt;mxGeometry height=&quot;60&quot; width=&quot;50&quot; as=&quot;geometry&quot; /&gt;&#10;        &lt;/mxCell&gt;&#10;        &lt;mxCell id=&quot;rPtBvjCUnfqFWaXZD2SB-18&quot; parent=&quot;rPtBvjCUnfqFWaXZD2SB-24&quot; style=&quot;sketch=0;outlineConnect=0;fontColor=#232F3E;gradientColor=none;fillColor=#8C4FFF;strokeColor=none;dashed=0;verticalLabelPosition=bottom;verticalAlign=top;align=center;html=1;fontSize=12;fontStyle=0;aspect=fixed;pointerEvents=1;shape=mxgraph.aws4.data_lake_resource_icon;&quot; value=&quot;&quot; vertex=&quot;1&quot;&gt;&#10;          &lt;mxGeometry height=&quot;36&quot; width=&quot;36&quot; x=&quot;80&quot; y=&quot;12&quot; as=&quot;geometry&quot; /&gt;&#10;        &lt;/mxCell&gt;&#10;        &lt;mxCell id=&quot;rPtBvjCUnfqFWaXZD2SB-26&quot; connectable=&quot;0&quot; parent=&quot;1&quot; style=&quot;group&quot; value=&quot;&quot; vertex=&quot;1&quot;&gt;&#10;          &lt;mxGeometry height=&quot;85&quot; width=&quot;280&quot; x=&quot;-30&quot; y=&quot;153&quot; as=&quot;geometry&quot; /&gt;&#10;        &lt;/mxCell&gt;&#10;        &lt;mxCell id=&quot;rPtBvjCUnfqFWaXZD2SB-3&quot; parent=&quot;rPtBvjCUnfqFWaXZD2SB-26&quot; style=&quot;text;html=1;whiteSpace=wrap;strokeColor=none;fillColor=none;align=center;verticalAlign=middle;rounded=0;&quot; value=&quot;Data Warehouse&quot; vertex=&quot;1&quot;&gt;&#10;          &lt;mxGeometry height=&quot;30&quot; width=&quot;60&quot; x=&quot;220&quot; y=&quot;10&quot; as=&quot;geometry&quot; /&gt;&#10;        &lt;/mxCell&gt;&#10;        &lt;mxCell id=&quot;rPtBvjCUnfqFWaXZD2SB-13&quot; edge=&quot;1&quot; parent=&quot;rPtBvjCUnfqFWaXZD2SB-26&quot; source=&quot;rPtBvjCUnfqFWaXZD2SB-9&quot; style=&quot;edgeStyle=orthogonalEdgeStyle;rounded=0;orthogonalLoop=1;jettySize=auto;html=1;exitX=1;exitY=0.5;exitDx=0;exitDy=0;exitPerimeter=0;entryX=0;entryY=0.5;entryDx=0;entryDy=0;&quot; target=&quot;rPtBvjCUnfqFWaXZD2SB-10&quot;&gt;&#10;          &lt;mxGeometry relative=&quot;1&quot; as=&quot;geometry&quot; /&gt;&#10;        &lt;/mxCell&gt;&#10;        &lt;mxCell id=&quot;rPtBvjCUnfqFWaXZD2SB-9&quot; parent=&quot;rPtBvjCUnfqFWaXZD2SB-26&quot; style=&quot;shape=cylinder3;whiteSpace=wrap;html=1;boundedLbl=1;backgroundOutline=1;size=15;&quot; value=&quot;sources&quot; vertex=&quot;1&quot;&gt;&#10;          &lt;mxGeometry height=&quot;60&quot; width=&quot;50&quot; as=&quot;geometry&quot; /&gt;&#10;        &lt;/mxCell&gt;&#10;        &lt;mxCell id=&quot;rPtBvjCUnfqFWaXZD2SB-14&quot; edge=&quot;1&quot; parent=&quot;rPtBvjCUnfqFWaXZD2SB-26&quot; source=&quot;rPtBvjCUnfqFWaXZD2SB-10&quot; style=&quot;edgeStyle=orthogonalEdgeStyle;rounded=0;orthogonalLoop=1;jettySize=auto;html=1;exitX=1;exitY=0.5;exitDx=0;exitDy=0;entryX=0;entryY=0.75;entryDx=0;entryDy=0;&quot; target=&quot;rPtBvjCUnfqFWaXZD2SB-3&quot;&gt;&#10;          &lt;mxGeometry relative=&quot;1&quot; as=&quot;geometry&quot; /&gt;&#10;        &lt;/mxCell&gt;&#10;        &lt;mxCell id=&quot;rPtBvjCUnfqFWaXZD2SB-10&quot; parent=&quot;rPtBvjCUnfqFWaXZD2SB-26&quot; style=&quot;text;html=1;whiteSpace=wrap;strokeColor=none;fillColor=none;align=center;verticalAlign=middle;rounded=0;&quot; value=&quot;Data Lake&quot; vertex=&quot;1&quot;&gt;&#10;          &lt;mxGeometry height=&quot;30&quot; width=&quot;60&quot; x=&quot;100&quot; y=&quot;15&quot; as=&quot;geometry&quot; /&gt;&#10;        &lt;/mxCell&gt;&#10;        &lt;mxCell id=&quot;rPtBvjCUnfqFWaXZD2SB-19&quot; parent=&quot;rPtBvjCUnfqFWaXZD2SB-26&quot; style=&quot;sketch=0;outlineConnect=0;fontColor=#232F3E;gradientColor=none;fillColor=#8C4FFF;strokeColor=none;dashed=0;verticalLabelPosition=bottom;verticalAlign=top;align=center;html=1;fontSize=12;fontStyle=0;aspect=fixed;pointerEvents=1;shape=mxgraph.aws4.data_lake_resource_icon;&quot; value=&quot;&quot; vertex=&quot;1&quot;&gt;&#10;          &lt;mxGeometry height=&quot;36&quot; width=&quot;36&quot; x=&quot;112&quot; y=&quot;40&quot; as=&quot;geometry&quot; /&gt;&#10;        &lt;/mxCell&gt;&#10;        &lt;mxCell id=&quot;rPtBvjCUnfqFWaXZD2SB-20&quot; parent=&quot;rPtBvjCUnfqFWaXZD2SB-26&quot; style=&quot;image;aspect=fixed;html=1;points=[];align=center;fontSize=12;image=img/lib/azure2/databases/SQL_Data_Warehouses.svg;&quot; value=&quot;&quot; vertex=&quot;1&quot;&gt;&#10;          &lt;mxGeometry height=&quot;45&quot; width=&quot;44.31&quot; x=&quot;227.85&quot; y=&quot;40&quot; as=&quot;geometry&quot; /&gt;&#10;        &lt;/mxCell&gt;&#10;        &lt;mxCell id=&quot;rPtBvjCUnfqFWaXZD2SB-28&quot; connectable=&quot;0&quot; parent=&quot;1&quot; style=&quot;group&quot; value=&quot;&quot; vertex=&quot;1&quot;&gt;&#10;          &lt;mxGeometry height=&quot;60&quot; width=&quot;150&quot; x=&quot;-30&quot; y=&quot;275&quot; as=&quot;geometry&quot; /&gt;&#10;        &lt;/mxCell&gt;&#10;        &lt;mxCell id=&quot;rPtBvjCUnfqFWaXZD2SB-4&quot; parent=&quot;rPtBvjCUnfqFWaXZD2SB-28&quot; style=&quot;text;html=1;whiteSpace=wrap;strokeColor=none;fillColor=none;align=center;verticalAlign=middle;rounded=0;&quot; value=&quot;Data Lakehouse&quot; vertex=&quot;1&quot;&gt;&#10;          &lt;mxGeometry height=&quot;30&quot; width=&quot;60&quot; x=&quot;90&quot; y=&quot;15&quot; as=&quot;geometry&quot; /&gt;&#10;        &lt;/mxCell&gt;&#10;        &lt;mxCell id=&quot;rPtBvjCUnfqFWaXZD2SB-15&quot; edge=&quot;1&quot; parent=&quot;rPtBvjCUnfqFWaXZD2SB-28&quot; source=&quot;rPtBvjCUnfqFWaXZD2SB-11&quot; style=&quot;edgeStyle=orthogonalEdgeStyle;rounded=0;orthogonalLoop=1;jettySize=auto;html=1;exitX=1;exitY=0;exitDx=0;exitDy=37.5;exitPerimeter=0;entryX=0;entryY=0.75;entryDx=0;entryDy=0;&quot; target=&quot;rPtBvjCUnfqFWaXZD2SB-4&quot;&gt;&#10;          &lt;mxGeometry relative=&quot;1&quot; as=&quot;geometry&quot; /&gt;&#10;        &lt;/mxCell&gt;&#10;        &lt;mxCell id=&quot;rPtBvjCUnfqFWaXZD2SB-11&quot; parent=&quot;rPtBvjCUnfqFWaXZD2SB-28&quot; style=&quot;shape=cylinder3;whiteSpace=wrap;html=1;boundedLbl=1;backgroundOutline=1;size=15;&quot; value=&quot;sources&quot; vertex=&quot;1&quot;&gt;&#10;          &lt;mxGeometry height=&quot;60&quot; width=&quot;50&quot; as=&quot;geometry&quot; /&gt;&#10;        &lt;/mxCell&gt;&#10;        &lt;mxCell id=&quot;rPtBvjCUnfqFWaXZD2SB-30&quot; parent=&quot;1&quot; style=&quot;text;html=1;whiteSpace=wrap;overflow=hidden;rounded=0;&quot; value=&quot;&amp;lt;h1 style=&amp;quot;margin-top: 0px;&amp;quot;&amp;gt;Data Lakehouse&amp;lt;/h1&amp;gt;&amp;lt;p&amp;gt;metadata layer over datalake&amp;lt;/p&amp;gt;&quot; vertex=&quot;1&quot;&gt;&#10;          &lt;mxGeometry height=&quot;120&quot; width=&quot;180&quot; x=&quot;-205&quot; y=&quot;260&quot; as=&quot;geometry&quot; /&gt;&#10;        &lt;/mxCell&gt;&#10;        &lt;mxCell id=&quot;rPtBvjCUnfqFWaXZD2SB-31&quot; parent=&quot;1&quot; style=&quot;text;html=1;whiteSpace=wrap;overflow=hidden;rounded=0;&quot; value=&quot;&amp;lt;h1 style=&amp;quot;margin-top: 0px;&amp;quot;&amp;gt;Data Mesh&amp;lt;/h1&amp;gt;&amp;lt;p&amp;gt;all depts can create decentralised &amp;lt;b&amp;gt;&amp;lt;i&amp;gt;data products- reusable across&amp;lt;/i&amp;gt;&amp;lt;/b&amp;gt;&amp;lt;/p&amp;gt;&quot; vertex=&quot;1&quot;&gt;&#10;          &lt;mxGeometry height=&quot;120&quot; width=&quot;180&quot; x=&quot;-205&quot; y=&quot;384&quot; as=&quot;geometry&quot; /&gt;&#10;        &lt;/mxCell&gt;&#10;        &lt;mxCell id=&quot;rPtBvjCUnfqFWaXZD2SB-32&quot; parent=&quot;1&quot; style=&quot;text;align=center;fontStyle=1;verticalAlign=middle;spacingLeft=3;spacingRight=3;strokeColor=#d6b656;rotatable=0;points=[[0,0.5],[1,0.5]];portConstraint=eastwest;html=1;fillColor=#fff2cc;&quot; value=&quot;DATA MANAGEMENT APPROACHES&quot; vertex=&quot;1&quot;&gt;&#10;          &lt;mxGeometry height=&quot;20&quot; width=&quot;250&quot; x=&quot;130&quot; y=&quot;20&quot; as=&quot;geometry&quot; /&gt;&#10;        &lt;/mxCell&gt;&#10;      &lt;/root&gt;&#10;    &lt;/mxGraphModel&gt;&#10;  &lt;/diagram&gt;&#10;&lt;/mxfile&gt;&#10;"><defs/><g><g data-cell-id="0"><g data-cell-id="1"><g data-cell-id="rPtBvjCUnfqFWaXZD2SB-5"><g transform="translate(0.5,0.5)"><rect x="245" y="419.15" width="60" height="30" fill="none" stroke="none" pointer-events="all"/></g><g><g><switch><foreignObject style="overflow: visible; text-align: left;" pointer-events="none" width="100%" height="100%" requiredFeatures="http://www.w3.org/TR/SVG11/feature#Extensibility"><div xmlns="http://www.w3.org/1999/xhtml" style="display: flex; align-items: unsafe center; justify-content: unsafe center; width: 58px; height: 1px; padding-top: 434px; margin-left: 246px;"><div style="box-sizing: border-box; font-size: 0; text-align: center; color: #000000; "><div style="display: inline-block; font-size: 12px; font-family: Helvetica; color: light-dark(#000000, #ffffff); line-height: 1.2; pointer-events: all; white-space: normal; word-wrap: normal; ">Data Mesh</div></div></div></foreignObject><text x="275" y="438" fill="light-dark(#000000, #ffffff)" font-family="Helvetica" font-size="12px" text-anchor="middle">Data Mesh</text></switch></g></g></g><g data-cell-id="rPtBvjCUnfqFWaXZD2SB-17"><g transform="translate(0.5,0.5)"><path d="M 225 443.98 C 221.73 445.87 217.62 444.67 215.72 441.39 C 213.83 438.12 215.03 434 218.31 432.1 C 221.58 430.21 225.69 431.41 227.59 434.69 C 229.45 437.97 228.25 442.11 225 443.98 Z M 225 436.07 C 223.98 434.18 221.58 433.49 219.69 434.51 C 217.8 435.53 217.1 437.94 218.16 439.83 C 219.18 441.72 221.58 442.42 223.47 441.36 C 225.33 440.37 226.02 437.97 225 436.07 Z M 201.97 403.21 C 199.57 404.59 196.47 403.72 195.09 401.32 C 193.71 398.91 194.58 395.82 196.98 394.43 C 199.39 393.05 202.48 393.92 203.86 396.33 C 205.24 398.91 204.37 402.01 201.97 403.21 Z M 201.28 397.89 C 200.77 396.87 199.39 396.51 198.51 397.02 C 197.49 397.53 197.13 398.91 197.64 399.78 C 198.15 400.81 199.54 401.17 200.41 400.66 C 201.61 400.12 201.97 398.91 201.28 397.89 Z M 184.1 424.2 C 181.34 425.76 177.91 424.71 176.53 422.12 C 175 419.36 175.84 415.93 178.6 414.37 C 181.37 412.8 184.79 413.85 186.32 416.44 C 187.7 419.21 186.83 422.66 184.1 424.2 Z M 183.56 418 C 182.87 416.8 181.16 416.29 179.96 416.98 C 178.75 417.67 178.24 419.39 178.93 420.59 C 179.62 421.79 181.34 422.3 182.54 421.61 C 183.92 420.95 184.43 419.21 183.56 418 Z M 197.16 447.77 C 194.76 449.15 191.67 448.28 190.29 445.87 C 188.9 443.47 189.78 440.37 192.18 438.99 C 194.58 437.61 197.67 438.48 199.06 440.88 C 200.41 443.32 199.57 446.41 197.16 447.77 Z M 215.21 423.17 L 218.64 429.37 C 218.13 429.55 217.62 429.7 217.1 430.06 C 216.77 430.24 216.41 430.57 216.08 430.75 L 213.17 425.43 L 208.7 430.24 L 214.19 432.64 C 213.68 433.52 213.17 434.36 212.99 435.23 L 206.59 432.46 L 201.1 438.48 C 200.41 437.61 199.72 436.94 198.88 436.58 L 203.68 431.26 L 197.67 428.5 L 196.8 435.56 C 195.78 435.23 194.91 435.23 193.89 435.23 L 194.91 427.14 L 187.52 423.87 C 188.03 422.99 188.54 422.15 188.72 421.1 L 195.24 424.02 L 195.93 417.46 L 188.87 418.85 C 188.87 417.82 188.69 416.95 188.36 415.93 L 196.26 414.22 L 197.13 406.13 C 198.15 406.46 199.03 406.46 200.05 406.46 L 199.21 413.52 L 205.75 412.14 L 202.15 405.95 C 202.48 405.77 202.84 405.62 203.35 405.44 C 203.86 405.11 204.37 404.75 204.73 404.41 L 208.85 411.63 L 217.1 409.92 C 217.1 410.94 217.28 411.81 217.8 412.83 L 210.41 414.37 L 213.68 420.05 L 218.85 414.55 C 219.54 415.42 220.23 416.11 221.07 416.62 Z M 207.46 415.42 L 199.06 417.13 L 198.18 425.55 L 205.93 428.98 L 211.79 422.78 Z M 227.92 414.91 C 225.15 416.47 221.73 415.42 220.35 412.83 C 218.82 410.07 219.84 406.64 222.42 405.26 C 225.18 403.72 228.61 404.75 229.99 407.33 C 231.7 409.92 230.68 413.37 227.92 414.91 Z" fill="#ff6a00" stroke="none" pointer-events="all" style="fill: light-dark(rgb(255, 106, 0), rgb(233, 105, 14));"/></g></g><g data-cell-id="rPtBvjCUnfqFWaXZD2SB-21"><g transform="translate(0.5,0.5)"><rect x="0" y="0" width="180" height="120" fill="none" stroke="none" pointer-events="all"/></g><g><g><switch><foreignObject style="overflow: visible; text-align: left;" pointer-events="none" width="100%" height="100%" requiredFeatures="http://www.w3.org/TR/SVG11/feature#Extensibility"><div xmlns="http://www.w3.org/1999/xhtml" style="display: flex; align-items: unsafe flex-start; justify-content: unsafe flex-start; width: 178px; height: 1px; padding-top: 7px; margin-left: 2px;"><div style="box-sizing: border-box; font-size: 0; text-align: left; max-height: 116px; overflow: hidden; color: #000000; "><div style="display: inline-block; font-size: 12px; font-family: Helvetica; color: light-dark(#000000, #ffffff); line-height: 1.2; pointer-events: all; white-space: normal; word-wrap: normal; "><h1 style="margin-top: 0px;">Data Lake</h1><p>ingest raw data as it is</p><p>fast ingest</p></div></div></div></foreignObject><text x="2" y="19" fill="light-dark(#000000, #ffffff)" font-family="Helvetica" font-size="12px">Data Lake...</text></switch></g></g></g><g data-cell-id="rPtBvjCUnfqFWaXZD2SB-23"><g transform="translate(0.5,0.5)"><rect x="0" y="108" width="180" height="120" fill="none" stroke="none" pointer-events="all"/></g><g><g><switch><foreignObject style="overflow: visible; text-align: left;" pointer-events="none" width="100%" height="100%" requiredFeatures="http://www.w3.org/TR/SVG11/feature#Extensibility"><div xmlns="http://www.w3.org/1999/xhtml" style="display: flex; align-items: unsafe flex-start; justify-content: unsafe flex-start; width: 178px; height: 1px; padding-top: 115px; margin-left: 2px;"><div style="box-sizing: border-box; font-size: 0; text-align: left; max-height: 116px; overflow: hidden; color: #000000; "><div style="display: inline-block; font-size: 12px; font-family: Helvetica; color: light-dark(#000000, #ffffff); line-height: 1.2; pointer-events: all; white-space: normal; word-wrap: normal; "><h1 style="margin-top: 0px;">Data warehouse</h1><p>structured data.</p><p>need to respect schema</p></div></div></div></foreignObject><text x="2" y="127" fill="light-dark(#000000, #ffffff)" font-family="Helvetica" font-size="12px">Data warehouse...</text></switch></g></g></g><g data-cell-id="rPtBvjCUnfqFWaXZD2SB-24"><g transform="translate(0.5,0.5)"/><g data-cell-id="rPtBvjCUnfqFWaXZD2SB-1"><g transform="translate(0.5,0.5)"><rect x="250" y="78" width="60" height="30" fill="none" stroke="none" pointer-events="all"/></g><g><g><switch><foreignObject style="overflow: visible; text-align: left;" pointer-events="none" width="100%" height="100%" requiredFeatures="http://www.w3.org/TR/SVG11/feature#Extensibility"><div xmlns="http://www.w3.org/1999/xhtml" style="display: flex; align-items: unsafe center; justify-content: unsafe center; width: 58px; height: 1px; padding-top: 93px; margin-left: 251px;"><div style="box-sizing: border-box; font-size: 0; text-align: center; color: #000000; "><div style="display: inline-block; font-size: 12px; font-family: Helvetica; color: light-dark(#000000, #ffffff); line-height: 1.2; pointer-events: all; white-space: normal; word-wrap: normal; ">Data Lake</div></div></div></foreignObject><text x="280" y="97" fill="light-dark(#000000, #ffffff)" font-family="Helvetica" font-size="12px" text-anchor="middle">Data Lake</text></switch></g></g></g><g data-cell-id="rPtBvjCUnfqFWaXZD2SB-12"><g transform="translate(0.5,0.5)"><path d="M 230 52.5 L 250 52.5 L 250 60.1 L 253.63 60.1" fill="none" stroke="#000000" stroke-miterlimit="10" pointer-events="stroke" style="stroke: light-dark(rgb(0, 0, 0), rgb(255, 255, 255));"/><path d="M 258.88 60.1 L 251.88 63.6 L 253.63 60.1 L 251.88 56.6 Z" fill="#000000" stroke="#000000" stroke-miterlimit="10" pointer-events="all" style="fill: light-dark(rgb(0, 0, 0), rgb(255, 255, 255)); stroke: light-dark(rgb(0, 0, 0), rgb(255, 255, 255));"/></g></g><g data-cell-id="rPtBvjCUnfqFWaXZD2SB-8"><g transform="translate(0.5,0.5)"><path d="M 180 45 C 180 36.72 191.19 30 205 30 C 211.63 30 217.99 31.58 222.68 34.39 C 227.37 37.21 230 41.02 230 45 L 230 75 C 230 83.28 218.81 90 205 90 C 191.19 90 180 83.28 180 75 Z" fill="#ffffff" stroke="#000000" stroke-miterlimit="10" pointer-events="all" style="fill: light-dark(#ffffff, var(--ge-dark-color, #121212)); stroke: light-dark(rgb(0, 0, 0), rgb(255, 255, 255));"/><path d="M 230 45 C 230 53.28 218.81 60 205 60 C 191.19 60 180 53.28 180 45" fill="none" stroke="#000000" stroke-miterlimit="10" pointer-events="all" style="stroke: light-dark(rgb(0, 0, 0), rgb(255, 255, 255));"/></g><g><g><switch><foreignObject style="overflow: visible; text-align: left;" pointer-events="none" width="100%" height="100%" requiredFeatures="http://www.w3.org/TR/SVG11/feature#Extensibility"><div xmlns="http://www.w3.org/1999/xhtml" style="display: flex; align-items: unsafe center; justify-content: unsafe center; width: 48px; height: 1px; padding-top: 73px; margin-left: 181px;"><div style="box-sizing: border-box; font-size: 0; text-align: center; color: #000000; "><div style="display: inline-block; font-size: 12px; font-family: Helvetica; color: light-dark(#000000, #ffffff); line-height: 1.2; pointer-events: all; white-space: normal; word-wrap: normal; ">sources</div></div></div></foreignObject><text x="205" y="76" fill="light-dark(#000000, #ffffff)" font-family="Helvetica" font-size="12px" text-anchor="middle">sources</text></switch></g></g></g><g data-cell-id="rPtBvjCUnfqFWaXZD2SB-18"><g transform="translate(0.5,0.5)"><rect x="260" y="42" width="36" height="36" fill="none" stroke="none" pointer-events="all"/><path d="M 296 65.89 L 296 67.53 C 295.85 67.62 295.57 68.29 295.43 68.66 C 295.04 69.61 294.55 70.8 293.34 70.8 C 292.12 70.8 291.64 69.61 291.25 68.66 C 291.1 68.29 290.83 67.62 290.65 67.52 C 290.52 67.62 290.25 68.29 290.1 68.66 C 289.71 69.61 289.23 70.8 288.01 70.8 C 286.8 70.8 286.32 69.61 285.93 68.66 C 285.78 68.29 285.51 67.62 285.33 67.52 C 285.21 67.62 284.93 68.29 284.79 68.66 C 284.4 69.61 283.91 70.8 282.7 70.8 C 281.48 70.8 281 69.61 280.61 68.66 C 280.47 68.29 280.19 67.62 280.02 67.52 C 279.89 67.62 279.62 68.29 279.47 68.66 C 279.08 69.61 278.6 70.8 277.39 70.8 C 276.17 70.8 275.69 69.61 275.3 68.66 C 275.15 68.29 274.88 67.62 274.7 67.52 L 274.73 65.89 C 275.94 65.89 276.43 67.08 276.82 68.04 C 276.96 68.4 277.24 69.08 277.41 69.17 C 277.54 69.08 277.81 68.4 277.96 68.04 C 278.34 67.08 278.83 65.89 280.04 65.89 C 281.26 65.89 281.74 67.08 282.13 68.04 C 282.28 68.4 282.55 69.08 282.73 69.17 C 282.85 69.08 283.12 68.4 283.27 68.04 C 283.66 67.08 284.14 65.89 285.36 65.89 C 286.57 65.89 287.05 67.08 287.44 68.04 C 287.59 68.4 287.86 69.08 288.04 69.17 C 288.17 69.08 288.44 68.4 288.59 68.04 C 288.98 67.08 289.46 65.89 290.67 65.89 C 291.89 65.89 292.37 67.08 292.76 68.04 C 292.91 68.4 293.19 69.08 293.36 69.17 C 293.49 69.08 293.76 68.4 293.91 68.04 C 294.3 67.08 294.78 65.89 296 65.89 Z M 296 60.17 L 296 61.8 C 295.85 61.89 295.57 62.57 295.43 62.93 C 295.04 63.88 294.55 65.07 293.34 65.07 C 292.12 65.07 291.64 63.88 291.25 62.93 C 291.1 62.57 290.83 61.89 290.65 61.8 C 290.52 61.89 290.25 62.57 290.1 62.93 C 289.71 63.88 289.23 65.07 288.01 65.07 C 286.8 65.07 286.32 63.88 285.93 62.93 C 285.78 62.57 285.51 61.89 285.33 61.79 C 285.21 61.89 284.93 62.57 284.79 62.93 C 284.4 63.88 283.91 65.07 282.7 65.07 C 281.48 65.07 281 63.88 280.61 62.93 C 280.47 62.57 280.19 61.89 280.02 61.79 C 279.89 61.89 279.62 62.57 279.47 62.93 C 279.08 63.89 278.6 65.07 277.39 65.07 C 276.17 65.07 275.69 63.89 275.3 62.93 C 275.15 62.57 274.88 61.89 274.7 61.8 L 274.73 60.17 C 275.94 60.17 276.43 61.36 276.82 62.31 C 276.96 62.68 277.24 63.35 277.41 63.45 C 277.54 63.35 277.81 62.68 277.96 62.31 C 278.34 61.36 278.83 60.17 280.04 60.17 C 281.26 60.17 281.74 61.36 282.13 62.31 C 282.28 62.68 282.55 63.35 282.73 63.45 C 282.85 63.35 283.12 62.67 283.27 62.31 C 283.66 61.36 284.14 60.17 285.36 60.17 C 286.57 60.17 287.05 61.36 287.44 62.31 C 287.59 62.67 287.86 63.35 288.04 63.44 C 288.17 63.35 288.44 62.67 288.59 62.31 C 288.98 61.36 289.46 60.17 290.67 60.17 C 291.89 60.17 292.37 61.36 292.76 62.31 C 292.91 62.67 293.19 63.35 293.36 63.44 C 293.49 63.35 293.76 62.67 293.91 62.31 C 294.3 61.36 294.78 60.17 296 60.17 Z M 296 53.62 L 296 55.26 C 295.85 55.34 295.57 56.02 295.43 56.38 C 295.04 57.34 294.55 58.53 293.34 58.53 C 292.12 58.53 291.64 57.34 291.25 56.38 C 291.1 56.02 290.83 55.34 290.65 55.25 C 290.52 55.34 290.25 56.02 290.1 56.38 C 289.71 57.34 289.23 58.53 288.01 58.53 C 286.8 58.53 286.32 57.34 285.93 56.38 C 285.78 56.02 285.51 55.34 285.33 55.25 C 285.21 55.34 284.93 56.02 284.79 56.38 C 284.4 57.34 283.91 58.53 282.7 58.53 C 281.48 58.53 281 57.34 280.61 56.38 C 280.47 56.02 280.19 55.34 280.02 55.25 C 279.89 55.34 279.62 56.02 279.47 56.38 C 279.08 57.34 278.6 58.53 277.39 58.53 C 276.17 58.53 275.69 57.34 275.3 56.38 C 275.15 56.02 274.88 55.34 274.7 55.25 L 274.73 53.62 C 275.94 53.62 276.43 54.81 276.82 55.77 C 276.96 56.13 277.24 56.8 277.41 56.9 C 277.54 56.8 277.81 56.13 277.96 55.77 C 278.34 54.81 278.83 53.62 280.04 53.62 C 281.26 53.62 281.74 54.81 282.13 55.77 C 282.28 56.13 282.55 56.8 282.73 56.9 C 282.85 56.8 283.12 56.13 283.27 55.77 C 283.66 54.81 284.14 53.62 285.36 53.62 C 286.57 53.62 287.05 54.81 287.44 55.77 C 287.59 56.13 287.86 56.8 288.04 56.9 C 288.17 56.8 288.44 56.13 288.59 55.77 C 288.98 54.81 289.46 53.62 290.67 53.62 C 291.89 53.62 292.37 54.81 292.76 55.77 C 292.91 56.13 293.19 56.81 293.36 56.9 C 293.49 56.81 293.76 56.13 293.91 55.77 C 294.3 54.81 294.78 53.62 296 53.62 Z M 271.57 43.8 C 277.77 43.8 282.09 45.57 282.09 47.16 C 282.09 48.75 277.77 50.52 271.57 50.52 C 265.43 50.52 261.64 48.78 261.64 47.16 C 261.64 45.55 265.43 43.8 271.57 43.8 Z M 282.09 72.84 C 282.09 74.43 277.77 76.2 271.57 76.2 C 265.35 76.2 261.64 74.49 261.64 72.84 L 261.64 67.23 C 263.57 68.63 267.08 69.47 271.57 69.47 L 271.57 67.84 C 265.35 67.84 261.64 66.14 261.64 64.5 L 261.64 58.86 C 263.57 60.27 267.08 61.12 271.57 61.12 L 271.57 59.48 C 265.43 59.48 261.64 57.73 261.64 56.12 L 261.64 49.91 C 263.57 51.31 267.08 52.16 271.57 52.16 C 275.7 52.16 279.87 51.35 282.09 49.8 L 282.09 52.8 L 283.73 52.8 L 283.73 47.07 L 283.72 47.07 C 283.61 43.85 277.55 42.17 271.57 42.17 C 264.72 42.17 260.1 44.14 260.01 47.07 L 260 47.07 L 260 72.84 C 260 75.83 264.65 77.83 271.57 77.83 C 277.42 77.83 283.73 76.27 283.73 72.84 L 283.73 71.62 L 282.09 71.62 Z" fill="#8c4fff" stroke="none" pointer-events="all" style="fill: light-dark(rgb(140, 79, 255), rgb(177, 125, 255));"/></g></g></g><g data-cell-id="rPtBvjCUnfqFWaXZD2SB-26"><g transform="translate(0.5,0.5)"/><g data-cell-id="rPtBvjCUnfqFWaXZD2SB-3"><g transform="translate(0.5,0.5)"><rect x="395" y="153" width="60" height="30" fill="none" stroke="none" pointer-events="all"/></g><g><g><switch><foreignObject style="overflow: visible; text-align: left;" pointer-events="none" width="100%" height="100%" requiredFeatures="http://www.w3.org/TR/SVG11/feature#Extensibility"><div xmlns="http://www.w3.org/1999/xhtml" style="display: flex; align-items: unsafe center; justify-content: unsafe center; width: 58px; height: 1px; padding-top: 168px; margin-left: 396px;"><div style="box-sizing: border-box; font-size: 0; text-align: center; color: #000000; "><div style="display: inline-block; font-size: 12px; font-family: Helvetica; color: light-dark(#000000, #ffffff); line-height: 1.2; pointer-events: all; white-space: normal; word-wrap: normal; ">Data Warehouse</div></div></div></foreignObject><text x="425" y="172" fill="light-dark(#000000, #ffffff)" font-family="Helvetica" font-size="12px" text-anchor="middle">Data Wareh...</text></switch></g></g></g><g data-cell-id="rPtBvjCUnfqFWaXZD2SB-13"><g transform="translate(0.5,0.5)"><path d="M 225 173 L 268.63 173" fill="none" stroke="#000000" stroke-miterlimit="10" pointer-events="stroke" style="stroke: light-dark(rgb(0, 0, 0), rgb(255, 255, 255));"/><path d="M 273.88 173 L 266.88 176.5 L 268.63 173 L 266.88 169.5 Z" fill="#000000" stroke="#000000" stroke-miterlimit="10" pointer-events="all" style="fill: light-dark(rgb(0, 0, 0), rgb(255, 255, 255)); stroke: light-dark(rgb(0, 0, 0), rgb(255, 255, 255));"/></g></g><g data-cell-id="rPtBvjCUnfqFWaXZD2SB-9"><g transform="translate(0.5,0.5)"><path d="M 175 158 C 175 149.72 186.19 143 200 143 C 206.63 143 212.99 144.58 217.68 147.39 C 222.37 150.21 225 154.02 225 158 L 225 188 C 225 196.28 213.81 203 200 203 C 186.19 203 175 196.28 175 188 Z" fill="#ffffff" stroke="#000000" stroke-miterlimit="10" pointer-events="all" style="fill: light-dark(#ffffff, var(--ge-dark-color, #121212)); stroke: light-dark(rgb(0, 0, 0), rgb(255, 255, 255));"/><path d="M 225 158 C 225 166.28 213.81 173 200 173 C 186.19 173 175 166.28 175 158" fill="none" stroke="#000000" stroke-miterlimit="10" pointer-events="all" style="stroke: light-dark(rgb(0, 0, 0), rgb(255, 255, 255));"/></g><g><g><switch><foreignObject style="overflow: visible; text-align: left;" pointer-events="none" width="100%" height="100%" requiredFeatures="http://www.w3.org/TR/SVG11/feature#Extensibility"><div xmlns="http://www.w3.org/1999/xhtml" style="display: flex; align-items: unsafe center; justify-content: unsafe center; width: 48px; height: 1px; padding-top: 186px; margin-left: 176px;"><div style="box-sizing: border-box; font-size: 0; text-align: center; color: #000000; "><div style="display: inline-block; font-size: 12px; font-family: Helvetica; color: light-dark(#000000, #ffffff); line-height: 1.2; pointer-events: all; white-space: normal; word-wrap: normal; ">sources</div></div></div></foreignObject><text x="200" y="189" fill="light-dark(#000000, #ffffff)" font-family="Helvetica" font-size="12px" text-anchor="middle">sources</text></switch></g></g></g><g data-cell-id="rPtBvjCUnfqFWaXZD2SB-14"><g transform="translate(0.5,0.5)"><path d="M 335 173 L 365 173 L 365 175.5 L 388.63 175.5" fill="none" stroke="#000000" stroke-miterlimit="10" pointer-events="stroke" style="stroke: light-dark(rgb(0, 0, 0), rgb(255, 255, 255));"/><path d="M 393.88 175.5 L 386.88 179 L 388.63 175.5 L 386.88 172 Z" fill="#000000" stroke="#000000" stroke-miterlimit="10" pointer-events="all" style="fill: light-dark(rgb(0, 0, 0), rgb(255, 255, 255)); stroke: light-dark(rgb(0, 0, 0), rgb(255, 255, 255));"/></g></g><g data-cell-id="rPtBvjCUnfqFWaXZD2SB-10"><g transform="translate(0.5,0.5)"><rect x="275" y="158" width="60" height="30" fill="none" stroke="none" pointer-events="all"/></g><g><g><switch><foreignObject style="overflow: visible; text-align: left;" pointer-events="none" width="100%" height="100%" requiredFeatures="http://www.w3.org/TR/SVG11/feature#Extensibility"><div xmlns="http://www.w3.org/1999/xhtml" style="display: flex; align-items: unsafe center; justify-content: unsafe center; width: 58px; height: 1px; padding-top: 173px; margin-left: 276px;"><div style="box-sizing: border-box; font-size: 0; text-align: center; color: #000000; "><div style="display: inline-block; font-size: 12px; font-family: Helvetica; color: light-dark(#000000, #ffffff); line-height: 1.2; pointer-events: all; white-space: normal; word-wrap: normal; ">Data Lake</div></div></div></foreignObject><text x="305" y="177" fill="light-dark(#000000, #ffffff)" font-family="Helvetica" font-size="12px" text-anchor="middle">Data Lake</text></switch></g></g></g><g data-cell-id="rPtBvjCUnfqFWaXZD2SB-19"><g transform="translate(0.5,0.5)"><rect x="287" y="183" width="36" height="36" fill="none" stroke="none" pointer-events="all"/><path d="M 323 206.89 L 323 208.53 C 322.85 208.62 322.57 209.29 322.43 209.66 C 322.04 210.61 321.55 211.8 320.34 211.8 C 319.12 211.8 318.64 210.61 318.25 209.66 C 318.1 209.29 317.83 208.62 317.65 208.52 C 317.52 208.62 317.25 209.29 317.1 209.66 C 316.71 210.61 316.23 211.8 315.01 211.8 C 313.8 211.8 313.32 210.61 312.93 209.66 C 312.78 209.29 312.51 208.62 312.33 208.52 C 312.21 208.62 311.93 209.29 311.79 209.66 C 311.4 210.61 310.91 211.8 309.7 211.8 C 308.48 211.8 308 210.61 307.61 209.66 C 307.47 209.29 307.19 208.62 307.02 208.52 C 306.89 208.62 306.62 209.29 306.47 209.66 C 306.08 210.61 305.6 211.8 304.39 211.8 C 303.17 211.8 302.69 210.61 302.3 209.66 C 302.15 209.29 301.88 208.62 301.7 208.52 L 301.73 206.89 C 302.94 206.89 303.43 208.08 303.82 209.04 C 303.96 209.4 304.24 210.08 304.41 210.17 C 304.54 210.08 304.81 209.4 304.96 209.04 C 305.34 208.08 305.83 206.89 307.04 206.89 C 308.26 206.89 308.74 208.08 309.13 209.04 C 309.28 209.4 309.55 210.08 309.73 210.17 C 309.85 210.08 310.12 209.4 310.27 209.04 C 310.66 208.08 311.14 206.89 312.36 206.89 C 313.57 206.89 314.05 208.08 314.44 209.04 C 314.59 209.4 314.86 210.08 315.04 210.17 C 315.17 210.08 315.44 209.4 315.59 209.04 C 315.98 208.08 316.46 206.89 317.67 206.89 C 318.89 206.89 319.37 208.08 319.76 209.04 C 319.91 209.4 320.19 210.08 320.36 210.17 C 320.49 210.08 320.76 209.4 320.91 209.04 C 321.3 208.08 321.78 206.89 323 206.89 Z M 323 201.17 L 323 202.8 C 322.85 202.89 322.57 203.57 322.43 203.93 C 322.04 204.88 321.55 206.07 320.34 206.07 C 319.12 206.07 318.64 204.88 318.25 203.93 C 318.1 203.57 317.83 202.89 317.65 202.8 C 317.52 202.89 317.25 203.57 317.1 203.93 C 316.71 204.88 316.23 206.07 315.01 206.07 C 313.8 206.07 313.32 204.88 312.93 203.93 C 312.78 203.57 312.51 202.89 312.33 202.79 C 312.21 202.89 311.93 203.57 311.79 203.93 C 311.4 204.88 310.91 206.07 309.7 206.07 C 308.48 206.07 308 204.88 307.61 203.93 C 307.47 203.57 307.19 202.89 307.02 202.79 C 306.89 202.89 306.62 203.57 306.47 203.93 C 306.08 204.89 305.6 206.07 304.39 206.07 C 303.17 206.07 302.69 204.89 302.3 203.93 C 302.15 203.57 301.88 202.89 301.7 202.8 L 301.73 201.17 C 302.94 201.17 303.43 202.36 303.82 203.31 C 303.96 203.68 304.24 204.35 304.41 204.45 C 304.54 204.35 304.81 203.68 304.96 203.31 C 305.34 202.36 305.83 201.17 307.04 201.17 C 308.26 201.17 308.74 202.36 309.13 203.31 C 309.28 203.68 309.55 204.35 309.73 204.45 C 309.85 204.35 310.12 203.67 310.27 203.31 C 310.66 202.36 311.14 201.17 312.36 201.17 C 313.57 201.17 314.05 202.36 314.44 203.31 C 314.59 203.67 314.86 204.35 315.04 204.44 C 315.17 204.35 315.44 203.67 315.59 203.31 C 315.98 202.36 316.46 201.17 317.67 201.17 C 318.89 201.17 319.37 202.36 319.76 203.31 C 319.91 203.67 320.19 204.35 320.36 204.44 C 320.49 204.35 320.76 203.67 320.91 203.31 C 321.3 202.36 321.78 201.17 323 201.17 Z M 323 194.62 L 323 196.26 C 322.85 196.34 322.57 197.02 322.43 197.38 C 322.04 198.34 321.55 199.53 320.34 199.53 C 319.12 199.53 318.64 198.34 318.25 197.38 C 318.1 197.02 317.83 196.34 317.65 196.25 C 317.52 196.34 317.25 197.02 317.1 197.38 C 316.71 198.34 316.23 199.53 315.01 199.53 C 313.8 199.53 313.32 198.34 312.93 197.38 C 312.78 197.02 312.51 196.34 312.33 196.25 C 312.21 196.34 311.93 197.02 311.79 197.38 C 311.4 198.34 310.91 199.53 309.7 199.53 C 308.48 199.53 308 198.34 307.61 197.38 C 307.47 197.02 307.19 196.34 307.02 196.25 C 306.89 196.34 306.62 197.02 306.47 197.38 C 306.08 198.34 305.6 199.53 304.39 199.53 C 303.17 199.53 302.69 198.34 302.3 197.38 C 302.15 197.02 301.88 196.34 301.7 196.25 L 301.73 194.62 C 302.94 194.62 303.43 195.81 303.82 196.77 C 303.96 197.13 304.24 197.8 304.41 197.9 C 304.54 197.8 304.81 197.13 304.96 196.77 C 305.34 195.81 305.83 194.62 307.04 194.62 C 308.26 194.62 308.74 195.81 309.13 196.77 C 309.28 197.13 309.55 197.8 309.73 197.9 C 309.85 197.8 310.12 197.13 310.27 196.77 C 310.66 195.81 311.14 194.62 312.36 194.62 C 313.57 194.62 314.05 195.81 314.44 196.77 C 314.59 197.13 314.86 197.8 315.04 197.9 C 315.17 197.8 315.44 197.13 315.59 196.77 C 315.98 195.81 316.46 194.62 317.67 194.62 C 318.89 194.62 319.37 195.81 319.76 196.77 C 319.91 197.13 320.19 197.81 320.36 197.9 C 320.49 197.81 320.76 197.13 320.91 196.77 C 321.3 195.81 321.78 194.62 323 194.62 Z M 298.57 184.8 C 304.77 184.8 309.09 186.57 309.09 188.16 C 309.09 189.75 304.77 191.52 298.57 191.52 C 292.43 191.52 288.64 189.78 288.64 188.16 C 288.64 186.55 292.43 184.8 298.57 184.8 Z M 309.09 213.84 C 309.09 215.43 304.77 217.2 298.57 217.2 C 292.35 217.2 288.64 215.49 288.64 213.84 L 288.64 208.23 C 290.57 209.63 294.08 210.47 298.57 210.47 L 298.57 208.84 C 292.35 208.84 288.64 207.14 288.64 205.5 L 288.64 199.86 C 290.57 201.27 294.08 202.12 298.57 202.12 L 298.57 200.48 C 292.43 200.48 288.64 198.73 288.64 197.12 L 288.64 190.91 C 290.57 192.31 294.08 193.16 298.57 193.16 C 302.7 193.16 306.87 192.35 309.09 190.8 L 309.09 193.8 L 310.73 193.8 L 310.73 188.07 L 310.72 188.07 C 310.61 184.85 304.55 183.17 298.57 183.17 C 291.72 183.17 287.1 185.14 287.01 188.07 L 287 188.07 L 287 213.84 C 287 216.83 291.65 218.83 298.57 218.83 C 304.42 218.83 310.73 217.27 310.73 213.84 L 310.73 212.62 L 309.09 212.62 Z" fill="#8c4fff" stroke="none" pointer-events="all" style="fill: light-dark(rgb(140, 79, 255), rgb(177, 125, 255));"/></g></g><g data-cell-id="rPtBvjCUnfqFWaXZD2SB-20"><g><image x="402.85" y="183" width="44.31" height="45" xlink:href="https://app.diagrams.net/img/lib/azure2/databases/SQL_Data_Warehouses.svg"/></g></g></g><g data-cell-id="rPtBvjCUnfqFWaXZD2SB-28"><g transform="translate(0.5,0.5)"/><g data-cell-id="rPtBvjCUnfqFWaXZD2SB-4"><g transform="translate(0.5,0.5)"><rect x="265" y="280" width="60" height="30" fill="none" stroke="none" pointer-events="all"/></g><g><g><switch><foreignObject style="overflow: visible; text-align: left;" pointer-events="none" width="100%" height="100%" requiredFeatures="http://www.w3.org/TR/SVG11/feature#Extensibility"><div xmlns="http://www.w3.org/1999/xhtml" style="display: flex; align-items: unsafe center; justify-content: unsafe center; width: 58px; height: 1px; padding-top: 295px; margin-left: 266px;"><div style="box-sizing: border-box; font-size: 0; text-align: center; color: #000000; "><div style="display: inline-block; font-size: 12px; font-family: Helvetica; color: light-dark(#000000, #ffffff); line-height: 1.2; pointer-events: all; white-space: normal; word-wrap: normal; ">Data Lakehouse</div></div></div></foreignObject><text x="295" y="299" fill="light-dark(#000000, #ffffff)" font-family="Helvetica" font-size="12px" text-anchor="middle">Data Lakeh...</text></switch></g></g></g><g data-cell-id="rPtBvjCUnfqFWaXZD2SB-15"><g transform="translate(0.5,0.5)"><path d="M 225 302.5 L 258.63 302.5" fill="none" stroke="#000000" stroke-miterlimit="10" pointer-events="stroke" style="stroke: light-dark(rgb(0, 0, 0), rgb(255, 255, 255));"/><path d="M 263.88 302.5 L 256.88 306 L 258.63 302.5 L 256.88 299 Z" fill="#000000" stroke="#000000" stroke-miterlimit="10" pointer-events="all" style="fill: light-dark(rgb(0, 0, 0), rgb(255, 255, 255)); stroke: light-dark(rgb(0, 0, 0), rgb(255, 255, 255));"/></g></g><g data-cell-id="rPtBvjCUnfqFWaXZD2SB-11"><g transform="translate(0.5,0.5)"><path d="M 175 280 C 175 271.72 186.19 265 200 265 C 206.63 265 212.99 266.58 217.68 269.39 C 222.37 272.21 225 276.02 225 280 L 225 310 C 225 318.28 213.81 325 200 325 C 186.19 325 175 318.28 175 310 Z" fill="#ffffff" stroke="#000000" stroke-miterlimit="10" pointer-events="all" style="fill: light-dark(#ffffff, var(--ge-dark-color, #121212)); stroke: light-dark(rgb(0, 0, 0), rgb(255, 255, 255));"/><path d="M 225 280 C 225 288.28 213.81 295 200 295 C 186.19 295 175 288.28 175 280" fill="none" stroke="#000000" stroke-miterlimit="10" pointer-events="all" style="stroke: light-dark(rgb(0, 0, 0), rgb(255, 255, 255));"/></g><g><g><switch><foreignObject style="overflow: visible; text-align: left;" pointer-events="none" width="100%" height="100%" requiredFeatures="http://www.w3.org/TR/SVG11/feature#Extensibility"><div xmlns="http://www.w3.org/1999/xhtml" style="display: flex; align-items: unsafe center; justify-content: unsafe center; width: 48px; height: 1px; padding-top: 308px; margin-left: 176px;"><div style="box-sizing: border-box; font-size: 0; text-align: center; color: #000000; "><div style="display: inline-block; font-size: 12px; font-family: Helvetica; color: light-dark(#000000, #ffffff); line-height: 1.2; pointer-events: all; white-space: normal; word-wrap: normal; ">sources</div></div></div></foreignObject><text x="200" y="311" fill="light-dark(#000000, #ffffff)" font-family="Helvetica" font-size="12px" text-anchor="middle">sources</text></switch></g></g></g></g><g data-cell-id="rPtBvjCUnfqFWaXZD2SB-30"><g transform="translate(0.5,0.5)"><rect x="0" y="250" width="180" height="120" fill="none" stroke="none" pointer-events="all"/></g><g><g><switch><foreignObject style="overflow: visible; text-align: left;" pointer-events="none" width="100%" height="100%" requiredFeatures="http://www.w3.org/TR/SVG11/feature#Extensibility"><div xmlns="http://www.w3.org/1999/xhtml" style="display: flex; align-items: unsafe flex-start; justify-content: unsafe flex-start; width: 178px; height: 1px; padding-top: 257px; margin-left: 2px;"><div style="box-sizing: border-box; font-size: 0; text-align: left; max-height: 116px; overflow: hidden; color: #000000; "><div style="display: inline-block; font-size: 12px; font-family: Helvetica; color: light-dark(#000000, #ffffff); line-height: 1.2; pointer-events: all; white-space: normal; word-wrap: normal; "><h1 style="margin-top: 0px;">Data Lakehouse</h1><p>metadata layer over datalake</p></div></div></div></foreignObject><text x="2" y="269" fill="light-dark(#000000, #ffffff)" font-family="Helvetica" font-size="12px">Data Lakehouse...</text></switch></g></g></g><g data-cell-id="rPtBvjCUnfqFWaXZD2SB-31"><g transform="translate(0.5,0.5)"><rect x="0" y="374" width="180" height="120" fill="none" stroke="none" pointer-events="all"/></g><g><g><switch><foreignObject style="overflow: visible; text-align: left;" pointer-events="none" width="100%" height="100%" requiredFeatures="http://www.w3.org/TR/SVG11/feature#Extensibility"><div xmlns="http://www.w3.org/1999/xhtml" style="display: flex; align-items: unsafe flex-start; justify-content: unsafe flex-start; width: 178px; height: 1px; padding-top: 381px; margin-left: 2px;"><div style="box-sizing: border-box; font-size: 0; text-align: left; max-height: 116px; overflow: hidden; color: #000000; "><div style="display: inline-block; font-size: 12px; font-family: Helvetica; color: light-dark(#000000, #ffffff); line-height: 1.2; pointer-events: all; white-space: normal; word-wrap: normal; "><h1 style="margin-top: 0px;">Data Mesh</h1><p>all depts can create decentralised <b><i>data products- reusable across</i></b></p></div></div></div></foreignObject><text x="2" y="393" fill="light-dark(#000000, #ffffff)" font-family="Helvetica" font-size="12px">Data Mesh...</text></switch></g></g></g><g data-cell-id="rPtBvjCUnfqFWaXZD2SB-32"><g transform="translate(0.5,0.5)"><rect x="335" y="10" width="250" height="20" fill="#fff2cc" stroke="#d6b656" pointer-events="all" style="fill: light-dark(rgb(255, 242, 204), rgb(40, 29, 0)); stroke: light-dark(rgb(214, 182, 86), rgb(109, 81, 0));"/></g><g><g><switch><foreignObject style="overflow: visible; text-align: left;" pointer-events="none" width="100%" height="100%" requiredFeatures="http://www.w3.org/TR/SVG11/feature#Extensibility"><div xmlns="http://www.w3.org/1999/xhtml" style="display: flex; align-items: unsafe center; justify-content: unsafe center; width: 1px; height: 1px; padding-top: 20px; margin-left: 460px;"><div style="box-sizing: border-box; font-size: 0; text-align: center; color: #000000; "><div style="display: inline-block; font-size: 12px; font-family: Helvetica; color: light-dark(#000000, #ffffff); line-height: 1.2; pointer-events: all; font-weight: bold; white-space: nowrap; ">DATA MANAGEMENT APPROACHES</div></div></div></foreignObject><text x="460" y="24" fill="light-dark(#000000, #ffffff)" font-family="Helvetica" font-size="12px" text-anchor="middle" font-weight="bold">DATA MANAGEMENT APPROACHES</text></switch></g></g></g></g></g></g><switch><g requiredFeatures="http://www.w3.org/TR/SVG11/feature#Extensibility"/><a transform="translate(0,-5)" xlink:href="https://www.drawio.com/doc/faq/svg-export-text-problems" target="_blank"><text text-anchor="middle" font-size="10px" x="50%" y="100%">Text is not SVG - cannot display</text></a></switch></svg>